<svg xmlns="http://www.w3.org/2000/svg" xmlns:xlink="http://www.w3.org/1999/xlink" width="160" zoomAndPan="magnify" viewBox="0 0 120 44.999999" height="60" preserveAspectRatio="xMidYMid meet" version="1.0"><defs><g/><clipPath id="0381c66386"><path d="M 107 15 L 115.316406 15 L 115.316406 19.929688 L 107 19.929688 Z M 107 15 " clip-rule="nonzero"/></clipPath><clipPath id="aac61e8aca"><path d="M 111 14.675781 L 112 14.675781 L 112 17 L 111 17 Z M 111 14.675781 " clip-rule="nonzero"/></clipPath></defs><g fill="#000000" fill-opacity="1"><g transform="translate(4.121573, 31.435134)"><g><path d="M 8.375 -13.6875 L 2.921875 -0.875 C 2.804688 -0.5625 2.625 -0.316406 2.375 -0.140625 C 2.132812 0.0351562 1.875 0.125 1.59375 0.125 C 1.132812 0.125 0.796875 0 0.578125 -0.25 C 0.359375 -0.5 0.25 -0.8125 0.25 -1.1875 C 0.25 -1.332031 0.273438 -1.492188 0.328125 -1.671875 L 6.609375 -16.75 C 6.742188 -17.082031 6.945312 -17.335938 7.21875 -17.515625 C 7.5 -17.703125 7.800781 -17.78125 8.125 -17.75 C 8.425781 -17.75 8.707031 -17.660156 8.96875 -17.484375 C 9.226562 -17.304688 9.414062 -17.0625 9.53125 -16.75 L 15.734375 -1.96875 C 15.816406 -1.75 15.859375 -1.546875 15.859375 -1.359375 C 15.859375 -0.910156 15.710938 -0.550781 15.421875 -0.28125 C 15.128906 -0.0078125 14.804688 0.125 14.453125 0.125 C 14.148438 0.125 13.875 0.0351562 13.625 -0.140625 C 13.382812 -0.328125 13.195312 -0.582031 13.0625 -0.90625 L 7.640625 -13.546875 Z M 3.703125 -3.953125 L 5.09375 -6.859375 L 11.90625 -6.859375 L 12.375 -3.953125 Z M 3.703125 -3.953125 "/></g></g></g><g fill="#000000" fill-opacity="1"><g transform="translate(19.478836, 31.435134)"><g><path d="M 3.65625 -0.75 C 3.65625 -0.550781 3.578125 -0.375 3.421875 -0.21875 C 3.273438 -0.0703125 3.101562 0 2.90625 0 C 2.6875 0 2.503906 -0.0703125 2.359375 -0.21875 C 2.210938 -0.375 2.140625 -0.550781 2.140625 -0.75 L 2.140625 -17.90625 C 2.140625 -18.101562 2.210938 -18.273438 2.359375 -18.421875 C 2.515625 -18.578125 2.695312 -18.65625 2.90625 -18.65625 C 3.125 -18.65625 3.300781 -18.578125 3.4375 -18.421875 C 3.582031 -18.273438 3.65625 -18.101562 3.65625 -17.90625 Z M 3.65625 -0.75 "/></g></g></g><g fill="#000000" fill-opacity="1"><g transform="translate(24.520797, 31.435134)"><g><path d="M 8.125 -12.984375 C 9.257812 -12.984375 10.269531 -12.703125 11.15625 -12.140625 C 12.039062 -11.578125 12.742188 -10.800781 13.265625 -9.8125 C 13.785156 -8.832031 14.046875 -7.707031 14.046875 -6.4375 C 14.046875 -5.15625 13.785156 -4.015625 13.265625 -3.015625 C 12.742188 -2.023438 12.035156 -1.242188 11.140625 -0.671875 C 10.253906 -0.109375 9.253906 0.171875 8.140625 0.171875 C 7.554688 0.171875 7 0.0820312 6.46875 -0.09375 C 5.9375 -0.269531 5.453125 -0.507812 5.015625 -0.8125 C 4.578125 -1.113281 4.191406 -1.46875 3.859375 -1.875 C 3.523438 -2.289062 3.253906 -2.742188 3.046875 -3.234375 L 3.5 -3.5625 L 3.5 4.28125 C 3.5 4.488281 3.425781 4.664062 3.28125 4.8125 C 3.144531 4.96875 2.96875 5.046875 2.75 5.046875 C 2.53125 5.046875 2.347656 4.96875 2.203125 4.8125 C 2.066406 4.664062 2 4.488281 2 4.28125 L 2 -12.15625 C 2 -12.375 2.0625 -12.554688 2.1875 -12.703125 C 2.320312 -12.859375 2.507812 -12.9375 2.75 -12.9375 C 2.96875 -12.9375 3.144531 -12.859375 3.28125 -12.703125 C 3.425781 -12.554688 3.5 -12.375 3.5 -12.15625 L 3.5 -9.4375 L 3.15625 -9.640625 C 3.320312 -10.160156 3.566406 -10.625 3.890625 -11.03125 C 4.222656 -11.445312 4.609375 -11.800781 5.046875 -12.09375 C 5.484375 -12.382812 5.960938 -12.601562 6.484375 -12.75 C 7.003906 -12.90625 7.550781 -12.984375 8.125 -12.984375 Z M 8 -11.578125 C 7.082031 -11.578125 6.28125 -11.351562 5.59375 -10.90625 C 4.90625 -10.457031 4.363281 -9.847656 3.96875 -9.078125 C 3.570312 -8.316406 3.375 -7.4375 3.375 -6.4375 C 3.375 -5.4375 3.570312 -4.539062 3.96875 -3.75 C 4.363281 -2.96875 4.90625 -2.351562 5.59375 -1.90625 C 6.28125 -1.457031 7.082031 -1.234375 8 -1.234375 C 8.882812 -1.234375 9.664062 -1.457031 10.34375 -1.90625 C 11.03125 -2.351562 11.570312 -2.96875 11.96875 -3.75 C 12.375 -4.539062 12.578125 -5.4375 12.578125 -6.4375 C 12.578125 -7.425781 12.375 -8.304688 11.96875 -9.078125 C 11.570312 -9.847656 11.03125 -10.457031 10.34375 -10.90625 C 9.664062 -11.351562 8.882812 -11.578125 8 -11.578125 Z M 8 -11.578125 "/></g></g></g><g fill="#000000" fill-opacity="1"><g transform="translate(39.04256, 31.435134)"><g><path d="M 7.875 -12.984375 C 8.925781 -12.984375 9.78125 -12.753906 10.4375 -12.296875 C 11.09375 -11.847656 11.578125 -11.238281 11.890625 -10.46875 C 12.203125 -9.695312 12.359375 -8.835938 12.359375 -7.890625 L 12.359375 -0.75 C 12.359375 -0.550781 12.28125 -0.375 12.125 -0.21875 C 11.976562 -0.0703125 11.800781 0 11.59375 0 C 11.363281 0 11.179688 -0.0703125 11.046875 -0.21875 C 10.910156 -0.375 10.84375 -0.550781 10.84375 -0.75 L 10.84375 -7.890625 C 10.84375 -8.578125 10.738281 -9.195312 10.53125 -9.75 C 10.320312 -10.3125 9.976562 -10.753906 9.5 -11.078125 C 9.03125 -11.410156 8.398438 -11.578125 7.609375 -11.578125 C 6.910156 -11.578125 6.242188 -11.410156 5.609375 -11.078125 C 4.984375 -10.753906 4.472656 -10.3125 4.078125 -9.75 C 3.691406 -9.195312 3.5 -8.578125 3.5 -7.890625 L 3.5 -0.75 C 3.5 -0.550781 3.421875 -0.375 3.265625 -0.21875 C 3.117188 -0.0703125 2.945312 0 2.75 0 C 2.507812 0 2.320312 -0.0703125 2.1875 -0.21875 C 2.0625 -0.375 2 -0.550781 2 -0.75 L 2 -17.90625 C 2 -18.101562 2.066406 -18.273438 2.203125 -18.421875 C 2.347656 -18.578125 2.53125 -18.65625 2.75 -18.65625 C 2.96875 -18.65625 3.144531 -18.578125 3.28125 -18.421875 C 3.425781 -18.273438 3.5 -18.101562 3.5 -17.90625 L 3.5 -9.734375 L 2.921875 -8.859375 C 2.953125 -9.378906 3.113281 -9.882812 3.40625 -10.375 C 3.707031 -10.875 4.09375 -11.320312 4.5625 -11.71875 C 5.03125 -12.113281 5.550781 -12.421875 6.125 -12.640625 C 6.695312 -12.867188 7.28125 -12.984375 7.875 -12.984375 Z M 7.875 -12.984375 "/></g></g></g><g fill="#000000" fill-opacity="1"><g transform="translate(52.606259, 31.435134)"><g><path d="M 12.5625 -12.890625 C 12.78125 -12.890625 12.957031 -12.8125 13.09375 -12.65625 C 13.238281 -12.507812 13.3125 -12.328125 13.3125 -12.109375 L 13.3125 -0.75 C 13.3125 -0.550781 13.234375 -0.375 13.078125 -0.21875 C 12.929688 -0.0703125 12.757812 0 12.5625 0 C 12.34375 0 12.160156 -0.0703125 12.015625 -0.21875 C 11.867188 -0.375 11.796875 -0.550781 11.796875 -0.75 L 11.796875 -3.75 L 12.234375 -3.953125 C 12.234375 -3.484375 12.101562 -3.003906 11.84375 -2.515625 C 11.582031 -2.035156 11.222656 -1.582031 10.765625 -1.15625 C 10.316406 -0.738281 9.785156 -0.398438 9.171875 -0.140625 C 8.554688 0.117188 7.894531 0.25 7.1875 0.25 C 6.039062 0.25 5.019531 -0.0390625 4.125 -0.625 C 3.226562 -1.21875 2.519531 -2.023438 2 -3.046875 C 1.488281 -4.078125 1.234375 -5.226562 1.234375 -6.5 C 1.234375 -7.8125 1.492188 -8.96875 2.015625 -9.96875 C 2.535156 -10.96875 3.238281 -11.753906 4.125 -12.328125 C 5.019531 -12.898438 6.03125 -13.1875 7.15625 -13.1875 C 7.882812 -13.1875 8.5625 -13.0625 9.1875 -12.8125 C 9.820312 -12.5625 10.375 -12.21875 10.84375 -11.78125 C 11.3125 -11.34375 11.675781 -10.84375 11.9375 -10.28125 C 12.195312 -9.71875 12.328125 -9.132812 12.328125 -8.53125 L 11.796875 -8.90625 L 11.796875 -12.109375 C 11.796875 -12.328125 11.867188 -12.507812 12.015625 -12.65625 C 12.160156 -12.8125 12.34375 -12.890625 12.5625 -12.890625 Z M 7.3125 -1.15625 C 8.207031 -1.15625 9 -1.382812 9.6875 -1.84375 C 10.375 -2.3125 10.914062 -2.953125 11.3125 -3.765625 C 11.707031 -4.585938 11.90625 -5.5 11.90625 -6.5 C 11.90625 -7.5 11.707031 -8.390625 11.3125 -9.171875 C 10.914062 -9.960938 10.375 -10.59375 9.6875 -11.0625 C 9 -11.539062 8.207031 -11.78125 7.3125 -11.78125 C 6.4375 -11.78125 5.648438 -11.550781 4.953125 -11.09375 C 4.253906 -10.644531 3.707031 -10.023438 3.3125 -9.234375 C 2.914062 -8.441406 2.71875 -7.53125 2.71875 -6.5 C 2.71875 -5.5 2.914062 -4.585938 3.3125 -3.765625 C 3.707031 -2.953125 4.25 -2.3125 4.9375 -1.84375 C 5.632812 -1.382812 6.425781 -1.15625 7.3125 -1.15625 Z M 7.3125 -1.15625 "/></g></g></g><g fill="#ea580c" fill-opacity="1"><g transform="translate(69.099057, 31.435144)"><g><path d="M 14.0625 0 C 13.582031 0 13.203125 -0.191406 12.921875 -0.578125 L 7.09375 -8.25 L 9.390625 -10.59375 L 15.421875 -2.625 C 15.648438 -2.300781 15.765625 -1.957031 15.765625 -1.59375 C 15.765625 -1.125 15.585938 -0.738281 15.234375 -0.4375 C 14.890625 -0.144531 14.5 0 14.0625 0 Z M 14.359375 -17.796875 C 14.765625 -17.796875 15.097656 -17.628906 15.359375 -17.296875 C 15.617188 -16.972656 15.75 -16.640625 15.75 -16.296875 C 15.75 -15.941406 15.597656 -15.613281 15.296875 -15.3125 L 4.71875 -5.203125 L 4.59375 -8.8125 L 13.125 -17.203125 C 13.507812 -17.597656 13.921875 -17.796875 14.359375 -17.796875 Z M 3.453125 0 C 2.984375 0 2.601562 -0.144531 2.3125 -0.4375 C 2.03125 -0.738281 1.890625 -1.109375 1.890625 -1.546875 L 1.890625 -16.125 C 1.890625 -16.5625 2.039062 -16.925781 2.34375 -17.21875 C 2.644531 -17.519531 3.03125 -17.671875 3.5 -17.671875 C 3.976562 -17.671875 4.351562 -17.519531 4.625 -17.21875 C 4.90625 -16.925781 5.046875 -16.5625 5.046875 -16.125 L 5.046875 -1.546875 C 5.046875 -1.109375 4.898438 -0.738281 4.609375 -0.4375 C 4.328125 -0.144531 3.941406 0 3.453125 0 Z M 3.453125 0 "/></g></g></g><g fill="#ea580c" fill-opacity="1"><g transform="translate(84.866941, 31.435144)"><g><path d="M 3.453125 -0.75 C 3.453125 -0.550781 3.375 -0.375 3.21875 -0.21875 C 3.070312 -0.0703125 2.898438 0 2.703125 0 C 2.484375 0 2.300781 -0.0703125 2.15625 -0.21875 C 2.007812 -0.375 1.9375 -0.550781 1.9375 -0.75 L 1.9375 -12.359375 C 1.9375 -12.566406 2.007812 -12.742188 2.15625 -12.890625 C 2.300781 -13.046875 2.484375 -13.125 2.703125 -13.125 C 2.921875 -13.125 3.097656 -13.046875 3.234375 -12.890625 C 3.378906 -12.742188 3.453125 -12.566406 3.453125 -12.359375 Z M 2.703125 -14.8125 C 2.347656 -14.8125 2.082031 -14.890625 1.90625 -15.046875 C 1.726562 -15.203125 1.640625 -15.429688 1.640625 -15.734375 L 1.640625 -16 C 1.640625 -16.300781 1.734375 -16.53125 1.921875 -16.6875 C 2.117188 -16.84375 2.382812 -16.921875 2.71875 -16.921875 C 3.039062 -16.921875 3.289062 -16.84375 3.46875 -16.6875 C 3.644531 -16.53125 3.734375 -16.300781 3.734375 -16 L 3.734375 -15.734375 C 3.734375 -15.429688 3.644531 -15.203125 3.46875 -15.046875 C 3.289062 -14.890625 3.035156 -14.8125 2.703125 -14.8125 Z M 2.703125 -14.8125 "/></g></g></g><g fill="#ea580c" fill-opacity="1"><g transform="translate(89.508992, 31.435144)"><g><path d="M 12.5625 -18.671875 C 12.78125 -18.671875 12.960938 -18.597656 13.109375 -18.453125 C 13.253906 -18.316406 13.328125 -18.140625 13.328125 -17.921875 L 13.328125 -0.75 C 13.328125 -0.550781 13.25 -0.375 13.09375 -0.21875 C 12.945312 -0.0703125 12.769531 0 12.5625 0 C 12.34375 0 12.160156 -0.0703125 12.015625 -0.21875 C 11.878906 -0.375 11.8125 -0.550781 11.8125 -0.75 L 11.8125 -3.765625 L 12.234375 -4.109375 C 12.234375 -3.640625 12.109375 -3.148438 11.859375 -2.640625 C 11.609375 -2.128906 11.25 -1.65625 10.78125 -1.21875 C 10.320312 -0.78125 9.785156 -0.425781 9.171875 -0.15625 C 8.554688 0.113281 7.894531 0.25 7.1875 0.25 C 6.0625 0.25 5.046875 -0.0390625 4.140625 -0.625 C 3.242188 -1.21875 2.535156 -2.019531 2.015625 -3.03125 C 1.492188 -4.039062 1.234375 -5.191406 1.234375 -6.484375 C 1.234375 -7.765625 1.492188 -8.910156 2.015625 -9.921875 C 2.535156 -10.941406 3.238281 -11.742188 4.125 -12.328125 C 5.019531 -12.910156 6.035156 -13.203125 7.171875 -13.203125 C 7.859375 -13.203125 8.507812 -13.070312 9.125 -12.8125 C 9.75 -12.5625 10.300781 -12.21875 10.78125 -11.78125 C 11.257812 -11.34375 11.640625 -10.84375 11.921875 -10.28125 C 12.203125 -9.71875 12.34375 -9.132812 12.34375 -8.53125 L 11.8125 -8.90625 L 11.8125 -17.921875 C 11.8125 -18.117188 11.878906 -18.289062 12.015625 -18.4375 C 12.160156 -18.59375 12.34375 -18.671875 12.5625 -18.671875 Z M 7.3125 -1.15625 C 8.226562 -1.15625 9.023438 -1.382812 9.703125 -1.84375 C 10.378906 -2.3125 10.914062 -2.945312 11.3125 -3.75 C 11.707031 -4.550781 11.90625 -5.460938 11.90625 -6.484375 C 11.90625 -7.492188 11.707031 -8.394531 11.3125 -9.1875 C 10.914062 -9.988281 10.375 -10.617188 9.6875 -11.078125 C 9 -11.546875 8.207031 -11.78125 7.3125 -11.78125 C 6.4375 -11.78125 5.648438 -11.546875 4.953125 -11.078125 C 4.253906 -10.617188 3.707031 -9.988281 3.3125 -9.1875 C 2.914062 -8.394531 2.71875 -7.492188 2.71875 -6.484375 C 2.71875 -5.472656 2.914062 -4.5625 3.3125 -3.75 C 3.707031 -2.945312 4.253906 -2.3125 4.953125 -1.84375 C 5.648438 -1.382812 6.4375 -1.15625 7.3125 -1.15625 Z M 7.3125 -1.15625 "/></g></g></g><g fill="#ea580c" fill-opacity="1"><g transform="translate(104.040633, 31.435144)"><g><path d="M 1.265625 -2.046875 C 1.128906 -2.242188 1.0625 -2.4375 1.0625 -2.625 C 1.070312 -2.820312 1.179688 -2.984375 1.390625 -3.109375 C 1.523438 -3.222656 1.679688 -3.269531 1.859375 -3.25 C 2.035156 -3.238281 2.195312 -3.15625 2.34375 -3 C 2.800781 -2.414062 3.351562 -1.941406 4 -1.578125 C 4.644531 -1.210938 5.414062 -1.03125 6.3125 -1.03125 C 6.78125 -1.03125 7.242188 -1.109375 7.703125 -1.265625 C 8.171875 -1.429688 8.554688 -1.675781 8.859375 -2 C 9.160156 -2.332031 9.3125 -2.75 9.3125 -3.25 C 9.3125 -3.769531 9.160156 -4.191406 8.859375 -4.515625 C 8.554688 -4.835938 8.164062 -5.085938 7.6875 -5.265625 C 7.207031 -5.453125 6.695312 -5.613281 6.15625 -5.75 C 5.582031 -5.90625 5.023438 -6.078125 4.484375 -6.265625 C 3.953125 -6.460938 3.476562 -6.707031 3.0625 -7 C 2.65625 -7.289062 2.320312 -7.644531 2.0625 -8.0625 C 1.8125 -8.488281 1.6875 -9.003906 1.6875 -9.609375 C 1.6875 -10.316406 1.878906 -10.941406 2.265625 -11.484375 C 2.648438 -12.023438 3.175781 -12.445312 3.84375 -12.75 C 4.507812 -13.050781 5.265625 -13.203125 6.109375 -13.203125 C 6.523438 -13.203125 6.976562 -13.144531 7.46875 -13.03125 C 7.957031 -12.925781 8.4375 -12.742188 8.90625 -12.484375 C 9.375 -12.234375 9.796875 -11.890625 10.171875 -11.453125 C 10.316406 -11.304688 10.390625 -11.132812 10.390625 -10.9375 C 10.390625 -10.75 10.304688 -10.578125 10.140625 -10.421875 C 10.003906 -10.316406 9.847656 -10.265625 9.671875 -10.265625 C 9.492188 -10.265625 9.347656 -10.332031 9.234375 -10.46875 C 8.828125 -10.925781 8.347656 -11.269531 7.796875 -11.5 C 7.242188 -11.738281 6.644531 -11.859375 6 -11.859375 C 5.519531 -11.859375 5.0625 -11.773438 4.625 -11.609375 C 4.195312 -11.453125 3.835938 -11.210938 3.546875 -10.890625 C 3.265625 -10.578125 3.125 -10.160156 3.125 -9.640625 C 3.15625 -9.148438 3.328125 -8.753906 3.640625 -8.453125 C 3.953125 -8.148438 4.363281 -7.894531 4.875 -7.6875 C 5.394531 -7.488281 5.972656 -7.304688 6.609375 -7.140625 C 7.148438 -7.003906 7.664062 -6.84375 8.15625 -6.65625 C 8.65625 -6.476562 9.09375 -6.25 9.46875 -5.96875 C 9.851562 -5.6875 10.15625 -5.335938 10.375 -4.921875 C 10.601562 -4.503906 10.71875 -3.972656 10.71875 -3.328125 C 10.71875 -2.585938 10.507812 -1.945312 10.09375 -1.40625 C 9.6875 -0.875 9.140625 -0.460938 8.453125 -0.171875 C 7.765625 0.109375 7 0.25 6.15625 0.25 C 5.25 0.25 4.367188 0.0703125 3.515625 -0.28125 C 2.671875 -0.632812 1.921875 -1.222656 1.265625 -2.046875 Z M 1.265625 -2.046875 "/></g></g></g><g clip-path="url(#0381c66386)"><path fill="#000000" d="M 107.46875 17.652344 C 107.371094 17.367188 107.070312 17.238281 107.039062 16.890625 C 106.917969 15.628906 108.753906 15.019531 109.589844 15.007812 C 111.15625 14.992188 112.523438 15.847656 113.707031 16.910156 C 114.175781 17.335938 115.308594 18.035156 115.175781 18.875 C 115.113281 19.261719 113.523438 19.929688 113.167969 19.914062 C 112.957031 19.90625 111.671875 18.800781 111.199219 18.625 C 110.367188 18.320312 109.542969 18.496094 108.699219 18.613281 C 108.550781 18.632812 107.785156 18.777344 107.664062 18.632812 C 107.492188 18.4375 107.519531 17.984375 107.511719 17.738281 " fill-opacity="1" fill-rule="evenodd"/></g><g clip-path="url(#aac61e8aca)"><path fill="#000000" d="M 111.515625 16.019531 C 111.488281 16.023438 111.542969 15.871094 111.546875 15.863281 C 111.582031 15.738281 111.605469 15.617188 111.625 15.492188 C 111.65625 15.304688 111.714844 15.105469 111.6875 14.917969 C 111.679688 14.882812 111.640625 14.773438 111.6875 14.75 C 111.835938 14.675781 111.925781 15.101562 111.941406 15.179688 C 112.003906 15.53125 111.96875 16.09375 111.757812 16.386719 " fill-opacity="1" fill-rule="evenodd"/></g></svg>